<svg xmlns="http://www.w3.org/2000/svg" xmlns:xlink="http://www.w3.org/1999/xlink" viewBox="0 0 628.78 623.55"><defs><style>.cls-1{fill:#fff;}.cls-2{fill:none;stroke:#000;stroke-miterlimit:10;}</style></defs><g id="Capa_5" data-name="Capa 5"><circle class="cls-1" cx="300.42" cy="187.44" r="187.44"/><path d="M471.78,234H582.6s1.9,21.3,0,35.63H471.78Z" transform="translate(-95.58 -64.42)"/><path d="M320.22,234.05H209.4s-1.9,21.3,0,35.63H320.22Z" transform="translate(-95.58 -64.42)"/><path d="M432,194.29h99.52c-28.28-79.77-115.56-88.4-115.56-88.4V397.83C506,384,531.48,309,531.48,309H432Z" transform="translate(-95.58 -64.42)"/><path class="cls-2" d="M432,194.29h99.52c-28.28-79.77-115.56-88.4-115.56-88.4V397.83C506,384,531.48,309,531.48,309H432Z" transform="translate(-95.58 -64.42)"/><path d="M431.7,435.8V393.4s-10.44,3-16.23,3.26V438.3A145.36,145.36,0,0,0,431.7,435.8Z" transform="translate(-95.58 -64.42)"/><path d="M431.64,68.37v44s-10.44-3.07-16.23-3.39V65.77A142.45,142.45,0,0,1,431.64,68.37Z" transform="translate(-95.58 -64.42)"/><path d="M260.45,193.68H360V308.39H260.45S286,383.39,376,397.22V105.28S288.73,113.91,260.45,193.68Z" transform="translate(-95.58 -64.42)"/><path class="cls-2" d="M260.45,193.68H360V308.39H260.45S286,383.39,376,397.22V105.28S288.73,113.91,260.45,193.68Z" transform="translate(-95.58 -64.42)"/><path d="M360.25,434.56v-42.4s10.44,3,16.23,3.26v41.64A145.36,145.36,0,0,1,360.25,434.56Z" transform="translate(-95.58 -64.42)"/><path d="M360.3,68v43.14s10.44-3,16.23-3.32V65.42A143.89,143.89,0,0,0,360.3,68Z" transform="translate(-95.58 -64.42)"/><image width="5000" height="2604" transform="translate(0 296.08) scale(0.13)" xlink:href="../../../Downloads/Kawasaki_logo_PNG1.png"/></g></svg>