<svg xmlns="http://www.w3.org/2000/svg" viewBox="0 0 374.89 374.88"><defs><style>.cls-1{fill:#fff;}.cls-2{fill:none;stroke:#000;stroke-miterlimit:10;}</style></defs><g id="Capa_5" data-name="Capa 5"><circle class="cls-1" cx="187.44" cy="187.44" r="187.44"/><path d="M518.91,260.27H629.73s1.91,21.3,0,35.63H518.91Z" transform="translate(-255.69 -90.67)"/><path d="M367.36,260.29H256.54s-1.91,21.3,0,35.63H367.36Z" transform="translate(-255.69 -90.67)"/><path d="M479.09,220.54h99.52c-28.28-79.77-115.56-88.4-115.56-88.4V424.08c90-13.84,115.56-88.83,115.56-88.83H479.09Z" transform="translate(-255.69 -90.67)"/><path class="cls-2" d="M479.09,220.54h99.52c-28.28-79.77-115.56-88.4-115.56-88.4V424.08c90-13.84,115.56-88.83,115.56-88.83H479.09Z" transform="translate(-255.69 -90.67)"/><path d="M478.83,462.05v-42.4s-10.44,3-16.23,3.26v41.64A148.08,148.08,0,0,0,478.83,462.05Z" transform="translate(-255.69 -90.67)"/><path d="M478.77,94.61v44s-10.43-3.07-16.23-3.38V92A140.87,140.87,0,0,1,478.77,94.61Z" transform="translate(-255.69 -90.67)"/><path d="M307.58,219.93H407.1V334.64H307.58s25.53,75,115.56,88.83V131.53S335.87,140.15,307.58,219.93Z" transform="translate(-255.69 -90.67)"/><path class="cls-2" d="M307.58,219.93H407.1V334.64H307.58s25.53,75,115.56,88.83V131.53S335.87,140.15,307.58,219.93Z" transform="translate(-255.69 -90.67)"/><path d="M407.38,460.81v-42.4s10.44,3,16.23,3.26v41.64A148.08,148.08,0,0,1,407.38,460.81Z" transform="translate(-255.69 -90.67)"/><path d="M407.44,94.21v43.15s10.44-3,16.23-3.33V91.67A144.87,144.87,0,0,0,407.44,94.21Z" transform="translate(-255.69 -90.67)"/></g></svg>